<svg xmlns="http://www.w3.org/2000/svg" xmlns:xlink="http://www.w3.org/1999/xlink" width="85" height="85" viewBox="0 0 85 85"><defs><style>.a{fill:url(#a);}</style><linearGradient id="a" x1="0.5" x2="0.5" y2="1" gradientUnits="objectBoundingBox"><stop offset="0" stop-color="#7c8be8"/><stop offset="1" stop-color="#6073e4"/></linearGradient></defs><g transform="translate(41.083 4.25)"><path class="a" d="M255.967,25.6h-7.083a1.417,1.417,0,1,0,0,2.833h7.083a1.417,1.417,0,0,0,0-2.833Z" transform="translate(-247.467 -25.6)"/></g><g transform="translate(35.417 4.25)"><path class="a" d="M216.167,25.6h-1.417a1.417,1.417,0,0,0,0,2.833h1.417a1.417,1.417,0,1,0,0-2.833Z" transform="translate(-213.334 -25.6)"/></g><g transform="translate(18.417 12.75)"><path class="a" d="M112.351,76.8a1.338,1.338,0,0,0-1.417,1.417v1.417a1.417,1.417,0,0,0,2.833,0V78.217A1.338,1.338,0,0,0,112.351,76.8Z" transform="translate(-110.934 -76.8)"/></g><g transform="translate(18.417 18.417)"><path class="a" d="M112.351,110.933a1.338,1.338,0,0,0-1.417,1.417v1.417a1.417,1.417,0,1,0,2.833,0V112.35A1.338,1.338,0,0,0,112.351,110.933Z" transform="translate(-110.934 -110.933)"/></g><g transform="translate(38.25 72.25)"><path class="a" d="M236.067,435.2a5.667,5.667,0,1,0,5.667,5.667A5.683,5.683,0,0,0,236.067,435.2Zm0,8.5a2.833,2.833,0,1,1,2.833-2.833A2.842,2.842,0,0,1,236.067,443.7Z" transform="translate(-230.4 -435.2)"/></g><g transform="translate(48.167 15.583)"><path class="a" d="M321.3,93.867H295.8a5.683,5.683,0,0,0-5.667,5.667v19.833a5.772,5.772,0,0,0,4.675,5.667l2.55,6.233a1.49,1.49,0,0,0,2.692,0l2.408-6.233H321.3a5.683,5.683,0,0,0,5.667-5.667V99.534A5.683,5.683,0,0,0,321.3,93.867Zm2.833,25.5A2.842,2.842,0,0,1,321.3,122.2H301.467a1.239,1.239,0,0,0-1.275.85l-1.558,3.825-1.417-3.825a1.558,1.558,0,0,0-1.417-.85,2.842,2.842,0,0,1-2.833-2.833V99.534A2.842,2.842,0,0,1,295.8,96.7h25.5a2.842,2.842,0,0,1,2.833,2.833v19.833Z" transform="translate(-290.134 -93.867)"/></g><g transform="translate(0 29.75)"><path class="a" d="M31.167,179.2H5.667A5.683,5.683,0,0,0,0,184.867V204.7a5.683,5.683,0,0,0,5.667,5.667H24.508l2.408,6.233a1.49,1.49,0,0,0,2.692,0l2.55-6.233a5.661,5.661,0,0,0,4.675-5.667V184.867A5.683,5.683,0,0,0,31.167,179.2ZM34,204.7a2.842,2.842,0,0,1-2.833,2.833,1.239,1.239,0,0,0-1.275.85l-1.558,3.825-1.558-3.825a1.362,1.362,0,0,0-1.275-.85H5.667A2.842,2.842,0,0,1,2.833,204.7V184.867a2.842,2.842,0,0,1,2.833-2.833h25.5A2.842,2.842,0,0,1,34,184.867Z" transform="translate(0 -179.2)"/></g><g transform="translate(19.833)"><path class="a" d="M153.467,18.417h12.75A1.338,1.338,0,0,0,167.634,17V5.667A5.683,5.683,0,0,0,161.967,0H125.134a5.683,5.683,0,0,0-5.667,5.667v25.5a1.338,1.338,0,0,0,1.417,1.417H130.8a2.842,2.842,0,0,1,2.833,2.833V55.25a2.842,2.842,0,0,1-2.833,2.833,1.239,1.239,0,0,0-1.275.85l-1.558,3.825-1.558-3.825a1.362,1.362,0,0,0-1.275-.85h-4.25a1.338,1.338,0,0,0-1.417,1.417V79.333A5.683,5.683,0,0,0,125.134,85h36.833a5.683,5.683,0,0,0,5.667-5.667v-34a1.338,1.338,0,0,0-1.417-1.417h-7.083a1.239,1.239,0,0,0-1.275.85L156.3,48.592l-1.417-3.825a1.558,1.558,0,0,0-1.417-.85,2.842,2.842,0,0,1-2.833-2.833V21.25A2.842,2.842,0,0,1,153.467,18.417Zm-.992,28.333,2.55,6.233a1.49,1.49,0,0,0,2.692,0l2.408-6.233H164.8V79.333a2.842,2.842,0,0,1-2.833,2.833H125.134a2.842,2.842,0,0,1-2.833-2.833V60.917h1.842l2.408,6.233a1.49,1.49,0,0,0,2.692,0l2.55-6.233a5.66,5.66,0,0,0,4.675-5.667V35.417A5.683,5.683,0,0,0,130.8,29.75h-8.5V5.667a2.842,2.842,0,0,1,2.833-2.833h36.833A2.842,2.842,0,0,1,164.8,5.667v9.917H153.467A5.683,5.683,0,0,0,147.8,21.25V41.083A5.772,5.772,0,0,0,152.475,46.75Z" transform="translate(-119.467)"/></g><g transform="translate(19.833 8.5)"><path class="a" d="M153.467,61.117h12.75a1.338,1.338,0,0,0,1.417-1.417V52.617a1.338,1.338,0,0,0-1.417-1.417H120.884a1.338,1.338,0,0,0-1.417,1.417v21.25a1.338,1.338,0,0,0,1.417,1.417H130.8a2.842,2.842,0,0,1,2.833,2.833V97.95a2.842,2.842,0,0,1-2.833,2.833,1.239,1.239,0,0,0-1.275.85l-1.558,3.825-1.558-3.825a1.362,1.362,0,0,0-1.275-.85h-4.25a1.338,1.338,0,0,0-1.417,1.417v12.75a1.338,1.338,0,0,0,1.417,1.417h45.333a1.338,1.338,0,0,0,1.417-1.417V88.033a1.338,1.338,0,0,0-1.417-1.417h-7.083a1.239,1.239,0,0,0-1.275.85L156.3,91.292l-1.417-3.825a1.558,1.558,0,0,0-1.417-.85,2.842,2.842,0,0,1-2.833-2.833V63.95A2.842,2.842,0,0,1,153.467,61.117Zm-.992,28.333,2.55,6.233a1.49,1.49,0,0,0,2.692,0l2.408-6.233H164.8v24.083H122.3v-9.917h1.842l2.408,6.233a1.49,1.49,0,0,0,2.692,0l2.55-6.233a5.66,5.66,0,0,0,4.675-5.667V78.117A5.683,5.683,0,0,0,130.8,72.45h-8.5V54.033h42.5v4.25H153.467A5.683,5.683,0,0,0,147.8,63.95V83.783A5.772,5.772,0,0,0,152.475,89.45Z" transform="translate(-119.467 -51.2)"/></g><g transform="translate(9.89 35.558)"><path class="a" d="M75.748,231.329l-3.683-1.275V228.92l.142-.142a7.879,7.879,0,0,0,1.275-2.408,2.573,2.573,0,0,0,1.133-2.267v-1.558a2.393,2.393,0,0,0-.425-1.417v-1.842a5.557,5.557,0,0,0-.567-2.55c-.992-1.558-2.833-2.55-5.525-2.55s-4.533.85-5.525,2.55a4.211,4.211,0,0,0-.567,2.55v1.983a2.733,2.733,0,0,0-.425,1.417v1.7a2.693,2.693,0,0,0,.708,1.842,8.66,8.66,0,0,0,.708,1.7,7.912,7.912,0,0,0,.708,1.133v1.275l-3.117.708a1.623,1.623,0,0,0-.992,1.842c.142.85.992,1.133,1.842.992l3.258-.992.283-.142a2.985,2.985,0,0,0,1.558-2.55v-1.558a1.518,1.518,0,0,0-.283-.85,5.348,5.348,0,0,1-.708-1.133,5.072,5.072,0,0,1-.567-1.558,2.964,2.964,0,0,0-.567-.85v-1.7a1.286,1.286,0,0,0,.425-.992V219a1.8,1.8,0,0,1,.142-.85c.425-.708,1.275-1.133,3.117-1.133s2.692.425,3.117,1.133a2.628,2.628,0,0,1,.283.992v2.55a1.286,1.286,0,0,0,.425.992v1.558a1.277,1.277,0,0,0-.85.85,5.108,5.108,0,0,1-1.133,2.125,3.288,3.288,0,0,0-.567,1.417V230.2a2.914,2.914,0,0,0,1.7,2.692l.283.142,3.683.992a1.391,1.391,0,1,0,.708-2.691Z" transform="translate(-59.571 -214.187)"/></g><g transform="translate(55.696 21.533)"><path class="a" d="M355.864,142.882a21.2,21.2,0,0,1-2.55-7.65c-.142-2.975-2.408-5.525-7.083-5.525a6.964,6.964,0,0,0-6.092,2.975,7.87,7.87,0,0,0-1.133,2.975,11.381,11.381,0,0,1-1.7,5.242c-.283.425-.425.708-.708,1.133a5.981,5.981,0,0,1-.708.992,2.012,2.012,0,0,0,.992,3.117c.283.142.425.142.708.283a16.156,16.156,0,0,0,2.975.425l-2.267,1.7a1.417,1.417,0,0,0,1.7,2.267s4.533-3.825,4.958-4.675a1.875,1.875,0,0,0-1.7-2.692h-3.683c-.142,0-.283,0-.425-.283l.85-1.275a12.694,12.694,0,0,0,2.125-6.517,3.441,3.441,0,0,1,.567-1.558,4.2,4.2,0,0,1,3.683-1.7c1.842,0,2.833.425,3.542,1.275a2.943,2.943,0,0,1,.708,1.7,20.6,20.6,0,0,0,2.55,8.358h-3.825a1.843,1.843,0,0,0-1.133,3.258c.283.142,4.25,3.683,4.25,3.683a1.406,1.406,0,0,0,1.842-2.125l-2.267-1.842a23.3,23.3,0,0,0,2.975-.283A2.485,2.485,0,0,0,355.864,142.882Z" transform="translate(-335.484 -129.707)"/></g></svg>