<svg xmlns="http://www.w3.org/2000/svg" xmlns:xlink="http://www.w3.org/1999/xlink" width="76" height="76" viewBox="0 0 76 76"><defs><style>.a{fill:url(#a);}</style><linearGradient id="a" x1="0.5" x2="0.5" y2="1" gradientUnits="objectBoundingBox"><stop offset="0" stop-color="#7c8be8"/><stop offset="1" stop-color="#6073e4"/></linearGradient></defs><g transform="translate(8.016 8.016)"><path class="a" d="M109.887,54h-51.8A4.087,4.087,0,0,0,54,58.082v51.8a4.087,4.087,0,0,0,4.082,4.082h51.8a4.087,4.087,0,0,0,4.082-4.082v-51.8A4.087,4.087,0,0,0,109.887,54ZM111,109.887A1.114,1.114,0,0,1,109.887,111H85.469v-6.893h4.787a4.453,4.453,0,1,0,0-2.969H85.469V85.469h2.185a4.453,4.453,0,1,0,0-2.969H83.984A1.484,1.484,0,0,0,82.5,83.984v3.859H72.023V80.018a1.484,1.484,0,0,0-1.484-1.484H64.312V66.469a1.484,1.484,0,0,0-2.969,0v13.55A1.484,1.484,0,0,0,62.828,81.5h6.227v7.825a1.484,1.484,0,0,0,1.484,1.484H82.5V111H73.742V99.022a1.484,1.484,0,0,0-1.484-1.484H68.588a4.453,4.453,0,1,0,0,2.969h2.185V111H58.082a1.114,1.114,0,0,1-1.113-1.113v-51.8a1.114,1.114,0,0,1,1.113-1.113H79V69.438H76.815a4.453,4.453,0,1,0,0,2.969h3.669a1.484,1.484,0,0,0,1.484-1.484V56.969H87.4V72.109a1.484,1.484,0,0,0,1.484,1.484H101.6v3.117a1.484,1.484,0,0,0,2.969,0v-4.6a1.484,1.484,0,0,0-1.484-1.484H90.367V56.969h19.52A1.114,1.114,0,0,1,111,58.082Zm-18.031-7.264a1.484,1.484,0,1,1,1.484,1.484A1.486,1.486,0,0,1,92.969,102.623Zm-2.6-18.638a1.484,1.484,0,1,1,1.484,1.484A1.486,1.486,0,0,1,90.367,83.984ZM65.875,99.022a1.484,1.484,0,1,1-1.484-1.484A1.486,1.486,0,0,1,65.875,99.022Zm8.227-28.1a1.484,1.484,0,1,1-1.484-1.484A1.486,1.486,0,0,1,74.1,70.922Z" transform="translate(-54 -54)"/></g><path class="a" d="M67.278,0H8.722A8.732,8.732,0,0,0,0,8.722V67.278A8.732,8.732,0,0,0,8.722,76H67.278A8.732,8.732,0,0,0,76,67.278V8.722A8.732,8.732,0,0,0,67.278,0Zm5.753,67.278a5.76,5.76,0,0,1-5.753,5.753H8.722a5.76,5.76,0,0,1-5.753-5.753V8.722A5.76,5.76,0,0,1,8.722,2.969H67.278a5.76,5.76,0,0,1,5.753,5.753Z"/><g transform="translate(52.652 40.227)"><path class="a" d="M359.158,271a4.453,4.453,0,1,0,4.453,4.453A4.458,4.458,0,0,0,359.158,271Zm0,5.938a1.484,1.484,0,1,1,1.484-1.484A1.486,1.486,0,0,1,359.158,276.938Z" transform="translate(-354.705 -271)"/></g><g transform="translate(55.621 34.635)"><path class="a" d="M377.244,233.765a1.483,1.483,0,1,0,.435,1.049A1.5,1.5,0,0,0,377.244,233.765Z" transform="translate(-374.71 -233.33)"/></g><g transform="translate(15.359 13.656)"><path class="a" d="M106,92.435a1.483,1.483,0,1,0,.435,1.049A1.487,1.487,0,0,0,106,92.435Z" transform="translate(-103.47 -92)"/></g></svg>