<svg xmlns="http://www.w3.org/2000/svg" xmlns:xlink="http://www.w3.org/1999/xlink" width="88" height="88" viewBox="0 0 88 88"><defs><style>.a{fill:url(#a);}</style><linearGradient id="a" x1="0.5" x2="0.5" y2="1" gradientUnits="objectBoundingBox"><stop offset="0" stop-color="#7c8be8"/><stop offset="1" stop-color="#6073e4"/></linearGradient></defs><g transform="translate(0 0)"><g transform="translate(0 0)"><g transform="translate(0 0)"><path class="a" d="M44,0H36.667a27.53,27.53,0,0,0-27.5,27.5v3.082L.229,46.783A1.846,1.846,0,0,0,0,47.668q0,.156,0,.313a5.346,5.346,0,0,0,5.5,5.187,6.564,6.564,0,0,1,3.667,1.373V60.5q-.006.21,0,.421A7.126,7.126,0,0,0,16.5,67.834h11q.156,0,.313,0A5.346,5.346,0,0,0,33,62.334v-11H29.334v11A1.677,1.677,0,0,1,27.5,64.168h-11A3.454,3.454,0,0,1,12.835,60.5V53.667a1.833,1.833,0,0,0-.618-1.373A10.591,10.591,0,0,0,5.5,49.5l-.024,0a1.61,1.61,0,0,1-1.77-1.431l8.9-16.133a1.846,1.846,0,0,0,.227-.885V27.5A23.86,23.86,0,0,1,36.668,3.669h7.311A1.685,1.685,0,0,1,45.834,5.5v9.166H49.5V5.5q0-.156,0-.313A5.346,5.346,0,0,0,44,0Z" transform="translate(0 0)"/></g></g><g transform="translate(29.334 54.999)"><path class="a" d="M216.512,320H196.346v3.666h20.166a1.677,1.677,0,0,1,1.833,1.833v3.465c-.264,1.094-2.031,7.535-7.333,7.535a1.833,1.833,0,0,0-1.833,1.833v11H174.346v-5.5H170.68v7.333A1.833,1.833,0,0,0,172.513,353h38.5a1.833,1.833,0,0,0,1.833-1.833V340.008c5.731-1.083,8.462-7.13,9.13-10.472a1.824,1.824,0,0,0,.037-.367V325.5q0-.156,0-.313A5.346,5.346,0,0,0,216.512,320Z" transform="translate(-170.68 -320)"/></g><g transform="translate(45.834 5.502)"><path class="a" d="M307.012,48.513h-4.622a16.722,16.722,0,0,0-.665-1.6L305,43.642a1.833,1.833,0,0,0,0-2.592l-5.186-5.186a1.833,1.833,0,0,0-2.592,0l-3.271,3.271a16.963,16.963,0,0,0-1.6-.664V33.846a1.833,1.833,0,0,0-1.833-1.833H283.18a1.833,1.833,0,0,0-1.833,1.833V38.47a16.312,16.312,0,0,0-2.871,1.34l1.863,3.157a12.83,12.83,0,0,1,3.3-1.366,1.833,1.833,0,0,0,1.375-1.775V35.68h3.667v4.147a1.833,1.833,0,0,0,1.371,1.776,12.831,12.831,0,0,1,3.3,1.366,1.833,1.833,0,0,0,2.229-.282l2.933-2.933,2.594,2.589-2.933,2.933a1.833,1.833,0,0,0-.284,2.229,12.836,12.836,0,0,1,1.369,3.3,1.833,1.833,0,0,0,1.773,1.375h4.147v3.665h-4.143a1.833,1.833,0,0,0-1.773,1.375,12.835,12.835,0,0,1-1.369,3.3,1.833,1.833,0,0,0,.284,2.229l2.933,2.933-2.592,2.592-2.933-2.933a1.833,1.833,0,0,0-2.229-.282,12.831,12.831,0,0,1-3.3,1.366,1.833,1.833,0,0,0-1.375,1.775v4.147h-3.666V68.2a1.833,1.833,0,0,0-1.375-1.775,12.831,12.831,0,0,1-3.3-1.366,1.833,1.833,0,0,0-2.229.282l-2.933,2.933-2.592-2.592,2.933-2.933a1.833,1.833,0,0,0,.284-2.229,12.835,12.835,0,0,1-1.369-3.3,1.833,1.833,0,0,0-1.773-1.375h-5.98v3.667H271.3a16.7,16.7,0,0,0,.664,1.6L268.7,64.383a1.833,1.833,0,0,0,0,2.592l5.186,5.186a1.833,1.833,0,0,0,2.592,0l3.271-3.271a16.967,16.967,0,0,0,1.6.664v4.623a1.833,1.833,0,0,0,1.833,1.833h7.333a1.833,1.833,0,0,0,1.833-1.833V69.556a17.007,17.007,0,0,0,1.6-.664l3.271,3.269a1.833,1.833,0,0,0,2.592,0L305,66.975a1.833,1.833,0,0,0,0-2.592l-3.272-3.271a16.714,16.714,0,0,0,.665-1.6h4.623a1.833,1.833,0,0,0,1.833-1.833V50.346A1.833,1.833,0,0,0,307.012,48.513Z" transform="translate(-266.68 -32.013)"/></g><g transform="translate(58.667 20.169)"><path class="a" d="M348.679,117.347a7.333,7.333,0,1,0,7.333,7.333A7.333,7.333,0,0,0,348.679,117.347Zm0,11a3.667,3.667,0,1,1,3.667-3.667A3.666,3.666,0,0,1,348.679,128.347Z" transform="translate(-341.346 -117.347)"/></g><g transform="translate(18.334 29.335)"><path class="a" d="M115.843,170.68v1.833h-5.5V170.68h-3.667v1.833c0,.051,0,.1,0,.152a3.591,3.591,0,0,0,3.667,3.515h5.5c.051,0,.1,0,.152,0a3.591,3.591,0,0,0,3.515-3.667V170.68Z" transform="translate(-106.676 -170.68)"/></g><g transform="translate(45.834 51.335)"><path class="a" d="M272.18,298.68a5.5,5.5,0,1,0,5.5,5.5A5.5,5.5,0,0,0,272.18,298.68Zm0,7.333a1.833,1.833,0,1,1,1.833-1.833A1.833,1.833,0,0,1,272.18,306.013Z" transform="translate(-266.68 -298.68)"/></g><g transform="translate(25.668 42.168)"><path class="a" d="M154.847,245.347a5.5,5.5,0,1,0,5.5,5.5A5.5,5.5,0,0,0,154.847,245.347Zm0,7.333a1.833,1.833,0,1,1,1.833-1.833A1.833,1.833,0,0,1,154.847,252.68Z" transform="translate(-149.347 -245.347)"/></g><g transform="translate(42.167 12.836)"><path class="a" d="M250.847,74.68a5.5,5.5,0,1,0,5.5,5.5A5.5,5.5,0,0,0,250.847,74.68Zm0,7.333a1.833,1.833,0,1,1,1.833-1.833A1.833,1.833,0,0,1,250.847,82.013Z" transform="translate(-245.347 -74.68)"/></g><g transform="translate(38.501 29.335)"><rect class="a" width="3.667" height="3.667"/></g><g transform="translate(38.501 36.668)"><rect class="a" width="3.667" height="3.667"/></g><g transform="translate(29.334 71.501)"><rect class="a" width="3.667" height="3.667"/></g></g></svg>