<svg xmlns="http://www.w3.org/2000/svg" xmlns:xlink="http://www.w3.org/1999/xlink" width="90" height="90" viewBox="0 0 90 90"><defs><style>.a{fill:url(#a);}</style><linearGradient id="a" x1="0.5" x2="0.5" y2="1" gradientUnits="objectBoundingBox"><stop offset="0" stop-color="#7c8be8"/><stop offset="1" stop-color="#6073e4"/></linearGradient></defs><g transform="translate(-1 -1)"><path class="a" d="M10.806,55.138V36H7.9V55.138a4.355,4.355,0,1,0,2.9,0ZM9.355,60.677a1.452,1.452,0,1,1,1.452-1.452A1.452,1.452,0,0,1,9.355,60.677Z" transform="translate(1.806 15.806)"/><path class="a" d="M15.355,36A4.344,4.344,0,0,0,13.9,44.443V63.581h2.9V44.443A4.344,4.344,0,0,0,15.355,36Zm0,5.806a1.452,1.452,0,1,1,1.452-1.452A1.452,1.452,0,0,1,15.355,41.806Z" transform="translate(4.516 15.806)"/><path class="a" d="M54.806,55.138V36H51.9V55.138a4.355,4.355,0,1,0,2.9,0Zm-1.452,5.539a1.452,1.452,0,1,1,1.452-1.452A1.452,1.452,0,0,1,53.355,60.677Z" transform="translate(21.677 15.806)"/><path class="a" d="M59.355,36A4.344,4.344,0,0,0,57.9,44.443V63.581h2.9V44.443A4.344,4.344,0,0,0,59.355,36Zm0,5.806a1.452,1.452,0,1,1,1.452-1.452A1.452,1.452,0,0,1,59.355,41.806Z" transform="translate(24.387 15.806)"/><path class="a" d="M63.419,47.452a4.331,4.331,0,0,0-1.62.319,4.316,4.316,0,0,0-7.09-2.09,4.221,4.221,0,0,0-4.355-.865V32.324A16.021,16.021,0,0,0,61.779,19.319L67.916,22.7A14.25,14.25,0,1,0,70.866,21l-8.943-4.92a15.946,15.946,0,0,0-31.845,0L21.134,21a14.68,14.68,0,1,0,2.948,1.691l6.139-3.376A16.012,16.012,0,0,0,41.647,32.326V59.083A4.354,4.354,0,0,1,41.2,61L39.985,54.91a9.383,9.383,0,0,0-9.174-7.521,3.679,3.679,0,0,0-3.061,5.721l1.494,2.241a6.476,6.476,0,0,1,1.034,2.778l1,8.032a9.86,9.86,0,0,0,1.215,3.7l4.795,9.862V82.29h-2.9V91H66.323V82.29h-2.9V79.87l2.323-3.1a10.216,10.216,0,0,0,2.032-6.1V51.806a4.36,4.36,0,0,0-4.355-4.355ZM76.484,46a11.538,11.538,0,0,1-6.956-2.336,8.706,8.706,0,0,1,13.912,0A11.538,11.538,0,0,1,76.484,46ZM72.129,32.935a4.355,4.355,0,1,1,4.355,4.355A4.36,4.36,0,0,1,72.129,32.935Zm4.355-10.161A11.6,11.6,0,0,1,85.53,41.651a11.608,11.608,0,0,0-4.255-3.307,7.258,7.258,0,1,0-9.584,0,11.623,11.623,0,0,0-4.255,3.307,11.6,11.6,0,0,1,9.046-18.877ZM15.516,46A11.538,11.538,0,0,1,8.56,43.664a8.706,8.706,0,0,1,13.912,0A11.538,11.538,0,0,1,15.516,46ZM11.161,32.935a4.355,4.355,0,1,1,4.355,4.355A4.36,4.36,0,0,1,11.161,32.935Zm15.968,1.452a11.546,11.546,0,0,1-2.566,7.264,11.608,11.608,0,0,0-4.255-3.307,7.258,7.258,0,1,0-9.584,0A11.623,11.623,0,0,0,6.47,41.651a11.608,11.608,0,1,1,20.659-7.264Zm5.806-17.419a13.065,13.065,0,1,1,23.455,7.885,11.561,11.561,0,0,0-5.58-5.4,7.258,7.258,0,1,0-9.621,0,11.561,11.561,0,0,0-5.581,5.4,13.03,13.03,0,0,1-2.672-7.887Zm17.419-2.9A4.355,4.355,0,1,1,46,9.71,4.36,4.36,0,0,1,50.355,14.065ZM37.816,27.133a8.67,8.67,0,0,1,16.368,0,12.95,12.95,0,0,1-4.352,2.327,4.317,4.317,0,0,0-7.663,0A12.962,12.962,0,0,1,37.816,27.133ZM63.419,88.1H37.29v-2.9H63.419Zm1.452-17.419a7.3,7.3,0,0,1-1.452,4.355l-2.9,3.871V82.29H40.194V79.053L35.061,68.5a7.168,7.168,0,0,1-.9-2.7l-1-8.033a9.377,9.377,0,0,0-1.5-4.028l-1.5-2.243a.777.777,0,0,1,.646-1.208,6.472,6.472,0,0,1,6.328,5.187L39,64.81h3.539l1.24-2.481a7.3,7.3,0,0,0,.766-3.244v-27.6a1.452,1.452,0,0,1,2.9,0V54.71h2.9V48.9a1.452,1.452,0,0,1,2.9,0V54.71h2.9V48.9a1.452,1.452,0,0,1,2.9,0V54.71h2.9v-2.9a1.452,1.452,0,0,1,2.9,0Z"/></g></svg>