<svg xmlns="http://www.w3.org/2000/svg" width="74.601" height="45" viewBox="0 0 74.601 45"><defs><style>.a{fill:#0084ff;}</style></defs><g transform="translate(0 -0.398)"><path class="a" d="M183.461,111.439h3.658l-1.829-6.454Zm0,0" transform="translate(-151.318 -86.262)"/><path class="a" d="M145.493,47.1a14.318,14.318,0,1,0,14.319,14.319A14.318,14.318,0,0,0,145.493,47.1Zm.813,22.06c-.463,0-.82-.153-.925-.553l-.8-2.808h-4.815l-.8,2.808c-.105.4-.463.558-.925.558-.736,0-1.724-.462-1.724-1.135a1.238,1.238,0,0,1,.042-.211l4.058-13.224a1.707,1.707,0,0,1,1.744-.925c.8,0,1.577.294,1.766.925l4.057,13.222a.9.9,0,0,1,.042.209C148.03,68.677,147.042,69.157,146.306,69.157Zm7.947-.856c0,.568-.641.862-1.314.862-.693,0-1.314-.294-1.314-.862V54.635c0-.588.621-.84,1.314-.84.673,0,1.314.253,1.314.84Zm0,0" transform="translate(-108.193 -38.518)"/><path class="a" d="M74.6,22.9A79.291,79.291,0,0,0,63.984,11.977C57.726,6.7,48.016.4,37.3.4,31.375.4,21.928,2.414,10.57,12.018A79.108,79.108,0,0,0,0,22.9,79.247,79.247,0,0,0,10.618,33.82C16.876,39.1,26.585,45.4,37.3,45.4c5.926,0,15.373-2.016,26.731-11.619A79.1,79.1,0,0,0,74.6,22.9ZM37.3,40.02A17.121,17.121,0,1,1,54.422,22.9,17.122,17.122,0,0,1,37.3,40.02Zm0,0" transform="translate(0)"/></g></svg>