<svg xmlns="http://www.w3.org/2000/svg" width="63.001" height="63" viewBox="0 0 63.001 63"><defs><style>.a{fill:#0084ff;}</style></defs><path class="a" d="M62.231,29.644l-9.768-9.768c0-.066.037-.123.037-.189V11.813a2.624,2.624,0,0,0-2.625-2.625H23.625V2.625A2.624,2.624,0,0,0,21,0H2.625A2.624,2.624,0,0,0,0,2.625V21a2.624,2.624,0,0,0,2.625,2.625H21A2.624,2.624,0,0,0,23.625,21V14.437H47.25v5.25c0,.066.034.123.037.189l-9.768,9.768a2.622,2.622,0,0,0,0,3.712l9.768,9.768c0,.066-.037.123-.037.189v5.25H23.307a11.813,11.813,0,1,0,0,5.25H49.875A2.624,2.624,0,0,0,52.5,51.188V43.313c0-.066-.034-.123-.037-.189l9.768-9.768a2.622,2.622,0,0,0,0-3.712ZM18.375,18.375H5.25V5.25H18.375ZM11.813,57.75a6.562,6.562,0,1,1,6.562-6.562A6.57,6.57,0,0,1,11.813,57.75Z"/></svg>