<svg xmlns="http://www.w3.org/2000/svg" width="159" height="159" viewBox="0 0 159 159"><defs><style>.a{fill:#fff;}</style></defs><path class="a" d="M195.4,239.458a3.107,3.107,0,0,0,4.106-1.558l1.623-3.609h10.349l1.623,3.609a3.106,3.106,0,0,0,5.665-2.548l-9.63-21.408a3.106,3.106,0,0,0-5.664,0l-9.63,21.408a3.105,3.105,0,0,0,1.558,4.106Zm10.9-16.67,2.381,5.293h-4.762Z" transform="translate(-133.459 -146.241)"/><path class="a" d="M298.826,236.626V215.217a3.105,3.105,0,0,0-6.211,0v21.408a3.105,3.105,0,0,0,6.211,0Z" transform="translate(-201.744 -146.241)"/><path class="a" d="M146.819,213.454h63.529a3.106,3.106,0,0,0,3.105-3.105V146.819a3.106,3.106,0,0,0-3.105-3.105H192.523a3.105,3.105,0,0,0,0,6.211h14.72v57.318H149.925V149.925h14.711a3.105,3.105,0,0,0,0-6.211H146.819a3.106,3.106,0,0,0-3.105,3.105v63.529A3.105,3.105,0,0,0,146.819,213.454Z" transform="translate(-99.084 -99.084)"/><path class="a" d="M155.895,67.68a3.105,3.105,0,0,0,0-6.211H143.049V52.76h12.845a3.105,3.105,0,0,0,0-6.211H143.049v-5.4a3.106,3.106,0,0,0-3.105-3.105H128.308l-7.362-7.362V19.047a3.106,3.106,0,0,0-3.105-3.105h-5.4V3.105a3.105,3.105,0,0,0-6.211,0V15.942h-8.71V3.105a3.105,3.105,0,0,0-6.211,0V15.942H82.6V3.105a3.105,3.105,0,0,0-6.211,0V15.942H67.68V3.105a3.105,3.105,0,1,0-6.211,0V15.942H52.76V3.105a3.105,3.105,0,0,0-6.211,0V15.942h-5.4a3.106,3.106,0,0,0-3.105,3.105V30.683l-7.362,7.362H19.047a3.106,3.106,0,0,0-3.105,3.105v5.4H3.105a3.105,3.105,0,0,0,0,6.211H15.942v8.71H3.105a3.105,3.105,0,0,0,0,6.211H15.942v8.71H3.105a3.105,3.105,0,0,0,0,6.211H15.942v8.71H3.105a3.105,3.105,0,0,0,0,6.211H15.942v8.71H3.105a3.105,3.105,0,0,0,0,6.211H15.942v5.4a3.106,3.106,0,0,0,3.105,3.105H30.683l7.362,7.362v11.636a3.106,3.106,0,0,0,3.105,3.105h5.4v12.845a3.105,3.105,0,0,0,6.211,0V143.049h8.71v12.845a3.105,3.105,0,0,0,6.211,0V143.049h8.71v12.845a3.105,3.105,0,0,0,6.211,0V143.049h8.71v12.845a3.105,3.105,0,0,0,6.211,0V143.049h8.71v12.845a3.105,3.105,0,0,0,6.211,0V143.049h5.4a3.106,3.106,0,0,0,3.105-3.105V128.308l7.362-7.362h11.636a3.106,3.106,0,0,0,3.105-3.105v-5.4h12.845a3.105,3.105,0,0,0,0-6.211H143.049v-8.71h12.845a3.105,3.105,0,0,0,0-6.211H143.049V82.6h12.845a3.105,3.105,0,0,0,0-6.211H143.049v-8.71h12.845Zm-41.16-45.528v6.712H44.256V22.153Zm-92.582,22.1h6.712v70.478H22.153Zm12.922-1.819,7.362-7.362h74.117l7.362,7.362v74.117l-7.362,7.362H42.437l-7.362-7.362Zm9.181,94.4v-6.712h70.479v6.712Zm92.582-22.1h-6.711V44.256h6.711Z"/><path class="a" d="M249.091,149.925h.018a3.114,3.114,0,1,0-.018,0Z" transform="translate(-169.596 -99.084)"/></svg>