<svg xmlns="http://www.w3.org/2000/svg" width="29.333" height="22.401" viewBox="0 0 29.333 22.401"><defs><style>.a{fill:#0084ff;}</style></defs><g transform="translate(0 -60.5)"><g transform="translate(0 60.5)"><path class="a" d="M28.187,73.734a1.146,1.146,0,0,0,1.146-1.146V65.083A4.589,4.589,0,0,0,24.75,60.5H4.583A4.589,4.589,0,0,0,0,65.083V78.318A4.589,4.589,0,0,0,4.583,82.9H24.75a4.589,4.589,0,0,0,4.583-4.583,1.146,1.146,0,0,0-2.292,0,2.294,2.294,0,0,1-2.292,2.292H4.583a2.294,2.294,0,0,1-2.292-2.292V65.326l9.955,6.19a4.555,4.555,0,0,0,4.841,0l9.955-6.19v7.262A1.146,1.146,0,0,0,28.187,73.734ZM15.877,69.57a2.277,2.277,0,0,1-2.42,0L3.248,63.222a2.279,2.279,0,0,1,1.336-.43H24.75a2.279,2.279,0,0,1,1.336.43Z" transform="translate(0 -60.5)"/></g></g></svg>