<svg xmlns="http://www.w3.org/2000/svg" width="70.339" height="62.833" viewBox="0 0 70.339 62.833"><defs><style>.a{fill:#0084ff;}</style></defs><g transform="translate(0 0)"><path class="a" d="M264.473,108.774l8.753-8.753-8.753-8.753,1.41-1.41a6.258,6.258,0,0,0-8.85-8.85l-1.41,1.41-8.753-8.753-2.583,2.583v4.083a10.386,10.386,0,0,1,0,20.206V113.2H236.71l-1.511,1.511,11.671,11.67,8.753-8.753,1.216,1.216a6.258,6.258,0,0,0,8.85-8.85Zm0,0" transform="translate(-202.887 -63.544)"/><path class="a" d="M37.273,45.527V33.148h1.719a6.258,6.258,0,1,0,0-12.516H37.273V8.253H24.895V6.259a6.258,6.258,0,1,0-12.516,0V8.253H0V20.632H1.719a6.268,6.268,0,0,1,6.135,5.022,2.118,2.118,0,0,1,0,2.472,6.268,6.268,0,0,1-6.135,5.022H0V45.527H12.378V43.532a6.258,6.258,0,0,1,12.516,0v1.995Zm0,0" transform="translate(0 0)"/></g></svg>