<svg xmlns="http://www.w3.org/2000/svg" width="23.889" height="20.903" viewBox="0 0 23.889 20.903"><defs><style>.a{fill:#fff;}</style></defs><g transform="translate(0 -32.222)"><path class="a" d="M345.96,293.318a14.182,14.182,0,0,0-6.816-2.134,14.847,14.847,0,0,1,1.641.871,4.481,4.481,0,0,1,2.054,3.772v4.26h4.479v-4.26A2.979,2.979,0,0,0,345.96,293.318Z" transform="translate(-323.429 -246.963)"/><path class="a" d="M16.559,293.029a14.52,14.52,0,0,0-15.2,0A2.976,2.976,0,0,0,0,295.538v4.26H17.917v-4.26A2.977,2.977,0,0,0,16.559,293.029Z" transform="translate(0 -246.674)"/><path class="a" d="M289.815,42.426a5.162,5.162,0,0,0,1.5.247,5.226,5.226,0,0,0,0-10.452,5.162,5.162,0,0,0-1.5.247,6.636,6.636,0,0,1,0,9.957Z" transform="translate(-276.386)"/><path class="a" d="M89.478,33.753a5.226,5.226,0,1,1-7.39,0,5.226,5.226,0,0,1,7.39,0" transform="translate(-76.824 0)"/></g></svg>