<svg xmlns="http://www.w3.org/2000/svg" width="63" height="63" viewBox="0 0 63 63"><defs><style>.a{fill:#0084ff;}</style></defs><path class="a" d="M188.253,253.87H171.286a8.682,8.682,0,0,1-7.577,4.462h-9.179c-.01.186-.007-.264-.007,5.841a1.972,1.972,0,0,1-.925,1.67l-4.919,3.073a.984.984,0,0,0,0,1.669l4.919,3.074a1.97,1.97,0,0,1,.925,1.67v5.578a4.73,4.73,0,0,0,4.725,4.725h29.006a4.725,4.725,0,0,0,4.725-4.725V258.6A4.725,4.725,0,0,0,188.253,253.87Zm-6.417,26.2a1.969,1.969,0,1,1-2.785-2.785,5.414,5.414,0,0,0,1.655-3.056c-.011-1.687-.559-3.622-4.725-3.622q-.862,0-1.646.078c.022,1.649.074,3,.143,4.1a2.3,2.3,0,0,0,.709-1.009,1.969,1.969,0,0,1,3.821.955,7.634,7.634,0,0,1-3.952,4.435,2.321,2.321,0,0,0,.158.423c2.029,2.248-2.3,5.626-3.838.962-5.423,1.175-9.026-1.79-7.3-6.961a9.613,9.613,0,0,1,6.32-6.067c.009-.96.025-1.9.044-2.787-4.28.963-4.924,1.405-5.612,1.405a1.969,1.969,0,0,1-.58-3.85c.135-.042,3-.919,6.322-1.612.054-1.338.1-2.174.1-2.194a1.969,1.969,0,1,1,3.931.218c0,.015-.027.5-.063,1.3,3.511-.418,6.9-.194,7.774,2.428a1.969,1.969,0,0,1-3.615,1.529c-.316-.11-1.417-.358-4.3.037-.023.858-.043,1.778-.055,2.73,7.1-.575,10.274,2.835,10.305,7.469a8.986,8.986,0,0,1-2.808,5.868Z" transform="translate(-129.978 -222.632)"/><path class="a" d="M308.633,404.436c-1.616.373-2.711.151-2.984-.142-.368-.393,0-3.223,2.724-4.735C308.418,401.541,308.508,403.139,308.633,404.436Z" transform="translate(-267.936 -350.395)"/><path class="a" d="M39.381,11.972a1.97,1.97,0,0,1-.925-1.67V4.725A4.73,4.73,0,0,0,33.731,0H4.725A4.725,4.725,0,0,0,0,4.725V27.037a4.725,4.725,0,0,0,4.725,4.725H33.731a4.725,4.725,0,0,0,4.725-4.725V21.459a1.972,1.972,0,0,1,.925-1.67L44.3,16.716a.984.984,0,0,0,0-1.67ZM26.613,26.649A1.968,1.968,0,0,1,24.079,25.5l-1.195-3.186H15.572L14.378,25.5a1.969,1.969,0,1,1-3.686-1.383L17.385,6.266a1.97,1.97,0,0,1,3.686,0l6.694,17.849A1.969,1.969,0,0,1,26.613,26.649Z"/><path class="a" d="M142.91,107.912h-4.36l2.18-5.812Z" transform="translate(-121.502 -89.537)"/></svg>